<svg xmlns="http://www.w3.org/2000/svg" version="1.0" width="260.000000" height="260.000000" preserveAspectRatio="xMidYMid meet"><rect id="backgroundrect" width="100%" height="100%" x="0" y="0" fill="none" stroke="none"/>
<metadata>
Created by potrace 1.16, written by Peter Selinger 2001-2019
</metadata>

<g class="currentLayer" style=""><title>Layer 1</title><g transform="translate(0,260) scale(0.10000000149011612,-0.10000000149011612) " fill="#ffffff" stroke="none" id="svg_1" class="selected" fill-opacity="1">
<path d="M1252 2552 c-17 -26 -38 -64 -47 -85 -8 -20 -19 -37 -24 -37 -4 0 -19 -27 -32 -60 -13 -33 -27 -60 -30 -60 -4 0 -17 -25 -29 -55 -12 -30 -25 -55 -29 -55 -3 0 -17 -27 -30 -60 -13 -33 -27 -60 -31 -60 -4 0 -18 -27 -30 -60 -12 -32 -25 -60 -29 -62 -3 -2 -29 -48 -56 -103 -27 -55 -54 -103 -60 -107 -5 -4 -7 -8 -3 -8 7 0 -100 -221 -112 -230 -3 -3 -17 -31 -29 -62 -13 -32 -26 -58 -30 -58 -3 0 -17 -27 -30 -60 -13 -33 -28 -60 -32 -60 -4 0 -11 -10 -14 -22 -4 -13 -46 -104 -95 -203 -111 -228 -140 -289 -140 -303 0 -6 14 -13 30 -17 23 -5 41 0 73 18 43 25 177 67 214 67 12 0 23 6 25 13 7 18 491 18 509 -1 7 -6 25 -12 40 -12 42 0 240 -40 274 -55 17 -7 72 -25 123 -41 50 -15 92 -30 92 -34 0 -4 18 -12 39 -19 29 -8 49 -25 75 -60 20 -27 36 -52 36 -57 0 -4 8 -16 18 -27 16 -19 16 -19 -3 -14 -11 3 -60 14 -110 23 -49 10 -92 20 -95 24 -3 4 -75 19 -160 34 -85 15 -164 31 -175 36 -58 25 -447 54 -605 44 -115 -7 -246 -28 -264 -43 -6 -5 -41 -21 -78 -36 -38 -15 -68 -31 -68 -35 0 -4 -18 -20 -41 -34 -50 -34 -144 -136 -155 -168 -3 -10 -9 -18 -14 -18 -5 0 -16 -21 -26 -46 -10 -25 -23 -51 -29 -58 -12 -12 -50 -131 -61 -188 -6 -35 -4 -38 17 -38 21 0 108 49 138 78 7 7 32 22 55 34 22 11 43 24 46 28 9 13 164 86 220 104 30 9 63 21 73 27 78 42 434 56 642 24 60 -9 112 -20 115 -23 3 -4 68 -20 145 -35 77 -16 145 -32 150 -36 6 -4 62 -18 125 -31 63 -13 117 -26 120 -30 3 -4 75 -19 160 -34 85 -15 164 -31 175 -36 56 -25 415 -41 415 -18 0 15 -51 142 -59 148 -4 3 -18 30 -30 60 -13 30 -26 57 -30 60 -4 3 -15 25 -26 50 -10 25 -24 52 -30 60 -6 8 -33 60 -60 115 -27 55 -52 102 -55 105 -4 3 -19 30 -34 60 -79 159 -145 229 -275 288 -31 14 -58 28 -61 32 -3 3 -34 17 -70 30 -36 12 -74 29 -86 36 -11 7 -59 23 -105 35 -46 13 -86 26 -89 30 -9 12 -191 40 -301 46 l-106 6 25 81 c13 45 28 86 33 92 5 6 18 42 30 80 11 38 24 73 29 77 4 5 18 -18 30 -50 13 -32 29 -65 36 -74 8 -8 19 -30 25 -47 l11 -32 79 0 c78 0 229 -25 239 -39 3 -4 34 -18 70 -30 36 -13 72 -29 80 -37 22 -19 101 -46 117 -40 7 3 13 13 13 23 0 22 -37 124 -47 132 -11 8 -43 79 -43 96 0 7 -6 20 -14 28 -8 7 -24 38 -37 68 -13 30 -26 56 -29 59 -5 5 -88 165 -138 268 -12 26 -27 54 -32 62 -5 8 -33 62 -62 120 -29 58 -55 107 -59 110 -4 3 -17 30 -30 60 -13 30 -28 60 -34 66 -6 7 -19 33 -29 58 -10 25 -21 46 -26 46 -4 0 -18 24 -30 53 -12 28 -26 54 -30 57 -3 3 -17 26 -30 53 -13 26 -29 47 -36 47 -6 0 -26 -21 -42 -48z" id="svg_2" fill="#ffffff" fill-opacity="1"/>
</g></g></svg>