<svg xmlns="http://www.w3.org/2000/svg" version="1.0" width="260" height="260" preserveAspectRatio="xMidYMid meet" style=""><rect id="backgroundrect" width="100%" height="100%" x="0" y="0" fill="none" stroke="none"/>
<metadata>
Created by potrace 1.16, written by Peter Selinger 2001-2019
</metadata>

<g class="currentLayer" style=""><title>Layer 1</title><g transform="translate(0,260) scale(0.10000000149011612,-0.10000000149011612) " fill="#ffffff" stroke="#000000" id="svg_1" class="selected" fill-opacity="1" stroke-opacity="1" stroke-width="50">
<path d="M1248.7579435746388,2534.1300870634927 c-16.472491562982164,-25.380281881287374 -36.82086349372484,-62.474540015476606 -45.54159432118598,-82.97399845805487 c-7.751760735521018,-19.52329375483644 -18.41043174686242,-36.11809344644741 -23.255282206563056,-36.11809344644741 c-3.875880367760509,0 -18.41043174686242,-26.356446569029195 -31.007042942084073,-58.56988126450932 c-12.596611195221655,-32.213434695480125 -26.16219248238344,-58.56988126450932 -29.06910275820382,-58.56988126450932 c-3.875880367760509,0 -16.472491562982164,-24.40411719354555 -28.100132666263693,-53.68905782580021 c-11.627641103281528,-29.28494063225466 -24.22425229850318,-53.68905782580021 -28.100132666263693,-53.68905782580021 c-2.906910275820382,0 -16.472491562982164,-26.356446569029195 -29.06910275820382,-58.56988126450932 c-12.596611195221655,-32.213434695480125 -26.16219248238344,-58.56988126450932 -30.038072850143948,-58.56988126450932 c-3.875880367760509,0 -17.44146165492229,-26.356446569029195 -29.06910275820382,-58.56988126450932 c-11.627641103281528,-31.237270007738303 -24.22425229850318,-58.56988126450932 -28.100132666263693,-60.52221063999297 c-2.906910275820382,-1.9523293754836437 -28.100132666263693,-46.85590501160746 -54.262325148647136,-100.54496283740767 c-26.16219248238344,-53.68905782580021 -52.32438496476688,-100.54496283740767 -58.13820551640764,-104.44962158837495 c-4.844850459700637,-3.904658750967288 -6.782790643580892,-7.809317501934576 -2.906910275820382,-7.809317501934576 c6.782790643580892,0 -96.89700919401272,-215.73239599094268 -108.52465029729427,-224.51787818061908 c-2.906910275820382,-2.9284940632254663 -16.472491562982164,-30.261105319996485 -28.100132666263693,-60.52221063999297 c-12.596611195221655,-31.237270007738303 -25.19322239044331,-56.61755188902568 -29.06910275820382,-56.61755188902568 c-2.906910275820382,0 -16.472491562982164,-26.356446569029195 -29.06910275820382,-58.56988126450932 c-12.596611195221655,-32.213434695480125 -27.131162574323568,-58.56988126450932 -31.007042942084073,-58.56988126450932 c-3.875880367760509,0 -10.6586710113414,-9.76164687741822 -13.565581287161784,-21.475623130320084 c-3.875880367760509,-12.690140940643687 -44.57262422924586,-101.5211275251495 -92.0521587343121,-198.16143161158988 c-107.55568020535414,-222.56554880513542 -135.65581287161783,-282.11159475738657 -135.65581287161783,-295.7779003857721 c0,-5.856988126450933 13.565581287161784,-12.690140940643687 29.06910275820382,-16.594799691610977 c22.28631211462293,-4.88082343870911 39.72777376954522,0 70.73481671162929,17.570964379352798 c41.665713953425474,24.40411719354555 171.50770627340253,65.40303407870206 207.35959967518727,65.40303407870206 c11.627641103281528,0 22.28631211462293,5.856988126450933 24.22425229850318,12.690140940643687 c6.782790643580892,17.570964379352798 475.7643151426025,17.570964379352798 493.2057767975249,-0.9761646877418219 c6.782790643580892,-5.856988126450933 24.22425229850318,-11.713976252901865 38.758803677605094,-11.713976252901865 c40.69674386148535,0 232.55282206563055,-39.04658750967288 265.49780519159486,-53.68905782580021 c16.472491562982164,-6.833152814192754 69.76584661968916,-24.40411719354555 119.18332130863567,-40.022752197414704 c48.44850459700636,-14.64247031612733 89.14524845849172,-29.28494063225466 89.14524845849172,-33.18959938322195 c0,-3.904658750967288 17.44146165492229,-11.713976252901865 37.78983358566497,-18.547129067094616 c28.100132666263693,-7.809317501934576 47.47953450506624,-24.40411719354555 72.67275689550956,-58.56988126450932 c19.379401838802547,-26.356446569029195 34.88292330984458,-50.76056376257475 34.88292330984458,-55.641387201283855 c0,-3.904658750967288 7.751760735521018,-15.618635003869151 17.44146165492229,-26.356446569029195 c15.503521471042037,-18.547129067094616 15.503521471042037,-18.547129067094616 -2.906910275820382,-13.666305628385508 c-10.6586710113414,2.9284940632254663 -58.13820551640764,13.666305628385508 -106.58671011341401,22.451787818061906 c-47.47953450506624,9.76164687741822 -89.14524845849172,19.52329375483644 -92.0521587343121,23.42795250580373 c-2.906910275820382,3.904658750967288 -72.67275689550956,18.547129067094616 -155.03521471042038,33.18959938322195 c-82.36245781491083,14.64247031612733 -158.9110950781809,30.261105319996485 -169.5697660895223,35.141928758705596 c-56.20026533252739,24.40411719354555 -433.1296310972369,52.71289313805839 -586.2269056237772,42.95124626064017 c-111.43156057311465,-6.833152814192754 -238.36664261727134,-27.332611256771017 -255.80810427219362,-41.975081572898354 c-5.813820551640764,-4.88082343870911 -39.72777376954522,-20.499458442578263 -75.57966717132994,-35.141928758705596 c-36.82086349372484,-14.64247031612733 -65.88996625192866,-30.261105319996485 -65.88996625192866,-34.165764070963775 c0,-3.904658750967288 -17.44146165492229,-19.52329375483644 -39.72777376954522,-33.18959938322195 c-48.44850459700636,-33.18959938322195 -139.5316932393783,-132.7583975328878 -150.19036425071974,-163.9956675406261 c-2.906910275820382,-9.76164687741822 -8.720730827461145,-17.570964379352798 -13.565581287161784,-17.570964379352798 c-4.844850459700637,0 -15.503521471042037,-20.499458442578263 -25.19322239044331,-44.90357563612381 c-9.689700919401274,-24.40411719354555 -22.28631211462293,-49.78439907483292 -28.100132666263693,-56.61755188902568 c-11.627641103281528,-11.713976252901865 -48.44850459700636,-127.8775740941787 -59.10717560834777,-183.51896129546253 c-5.813820551640764,-34.165764070963775 -3.875880367760509,-37.09425813418923 16.472491562982164,-37.09425813418923 c20.348371930742676,0 104.64876992953376,47.83206969934928 133.71787268773755,76.14084564386212 c6.782790643580892,6.833152814192754 31.007042942084073,21.475623130320084 53.29335505670701,33.18959938322195 c21.3173420226828,10.737811565160042 41.665713953425474,23.42795250580373 44.57262422924586,27.332611256771017 c8.720730827461145,12.690140940643687 158.9110950781809,83.95016314579671 213.17342022682803,101.5211275251495 c29.06910275820382,8.785482189676399 61.045115792228025,20.499458442578263 70.73481671162929,26.356446569029195 c75.57966717132994,40.998916885156525 420.53301990201527,54.665222513542034 622.0787990255618,23.42795250580373 c58.13820551640764,-8.785482189676399 108.52465029729427,-19.52329375483644 111.43156057311465,-22.451787818061906 c2.906910275820382,-3.904658750967288 65.88996625192866,-19.52329375483644 140.50066333131846,-34.165764070963775 c74.61069707938981,-15.618635003869151 140.50066333131846,-31.237270007738303 145.34551379101913,-35.141928758705596 c5.813820551640764,-3.904658750967288 60.076145700287896,-17.570964379352798 121.12126149251591,-30.261105319996485 c61.045115792228025,-12.690140940643687 113.3695007569949,-25.380281881287374 116.27641103281528,-29.28494063225466 c2.906910275820382,-3.904658750967288 72.67275689550956,-18.547129067094616 155.03521471042038,-33.18959938322195 c82.36245781491083,-14.64247031612733 158.9110950781809,-30.261105319996485 169.5697660895223,-35.141928758705596 c54.262325148647136,-24.40411719354555 402.1225881551528,-40.022752197414704 402.1225881551528,-17.570964379352798 c0,14.64247031612733 -49.41747468894649,138.61538565933873 -57.169235424467516,144.47237378578964 c-3.875880367760509,2.9284940632254663 -17.44146165492229,29.28494063225466 -29.06910275820382,58.56988126450932 c-12.596611195221655,29.28494063225466 -25.19322239044331,55.641387201283855 -29.06910275820382,58.56988126450932 c-3.875880367760509,2.9284940632254663 -14.53455137910191,24.40411719354555 -25.19322239044331,48.8082343870911 c-9.689700919401274,24.40411719354555 -23.255282206563056,50.76056376257475 -29.06910275820382,58.56988126450932 c-5.813820551640764,7.809317501934576 -31.976013034024202,58.56988126450932 -58.13820551640764,112.25893909030954 c-26.16219248238344,53.68905782580021 -50.38644478088662,99.56879814966584 -53.29335505670701,102.49729221289132 c-3.875880367760509,2.9284940632254663 -18.41043174686242,29.28494063225466 -32.94498312596433,58.56988126450932 c-76.54863726327007,155.2101853509497 -140.50066333131846,223.54171349287725 -266.466775283535,281.13543006964477 c-30.038072850143948,13.666305628385508 -56.20026533252739,27.332611256771017 -59.10717560834777,31.237270007738303 c-2.906910275820382,2.9284940632254663 -32.94498312596433,16.594799691610977 -67.82790643580891,29.28494063225466 c-34.88292330984458,11.713976252901865 -71.70378680356941,28.30877594451284 -83.33142790685095,35.141928758705596 c-10.6586710113414,6.833152814192754 -57.169235424467516,22.451787818061906 -101.74185965371338,34.165764070963775 c-44.57262422924586,12.690140940643687 -83.33142790685095,25.380281881287374 -86.23833818267134,29.28494063225466 c-8.720730827461145,11.713976252901865 -185.07328756056432,39.04658750967288 -291.65999767397835,44.90357563612381 l-102.71082974565351,5.856988126450933 l24.22425229850318,79.06933970708758 c12.596611195221655,43.92741094838199 27.131162574323568,83.95016314579671 31.976013034024202,89.80715127224762 c4.844850459700637,5.856988126450933 17.44146165492229,40.998916885156525 29.06910275820382,78.09317501934576 c10.6586710113414,37.09425813418923 23.255282206563056,71.260022205153 28.100132666263693,75.1646809561203 c3.875880367760509,4.88082343870911 17.44146165492229,-17.570964379352798 29.06910275820382,-48.8082343870911 c12.596611195221655,-31.237270007738303 28.100132666263693,-63.45070470321843 34.88292330984458,-72.23618689289482 c7.751760735521018,-7.809317501934576 18.41043174686242,-29.28494063225466 24.22425229850318,-45.87974032386563 l10.6586710113414,-31.237270007738303 l76.54863726327007,0 c75.57966717132994,0 221.89415105428918,-24.40411719354555 231.58385197369043,-38.07042282193106 c2.906910275820382,-3.904658750967288 32.94498312596433,-17.570964379352798 67.82790643580891,-29.28494063225466 c34.88292330984458,-12.690140940643687 69.76584661968916,-28.30877594451284 77.51760735521019,-36.11809344644741 c21.3173420226828,-18.547129067094616 97.86597928595286,-44.90357563612381 113.3695007569949,-39.04658750967288 c6.782790643580892,2.9284940632254663 12.596611195221655,12.690140940643687 12.596611195221655,22.451787818061906 c0,21.475623130320084 -35.85189340178471,121.04442127998594 -45.54159432118598,128.8537387819205 c-10.6586710113414,7.809317501934576 -41.665713953425474,77.11701033160395 -41.665713953425474,93.71181002321492 c0,6.833152814192754 -5.813820551640764,19.52329375483644 -13.565581287161784,27.332611256771017 c-7.751760735521018,6.833152814192754 -23.255282206563056,37.09425813418923 -35.85189340178471,66.3791987664439 c-12.596611195221655,29.28494063225466 -25.19322239044331,54.665222513542034 -28.100132666263693,57.5937165767675 c-4.844850459700637,4.88082343870911 -85.2693680907312,161.06717347740064 -133.71787268773755,261.61213631480825 c-11.627641103281528,25.380281881287374 -26.16219248238344,52.71289313805839 -31.007042942084073,60.52221063999297 c-4.844850459700637,7.809317501934576 -31.976013034024202,60.52221063999297 -60.076145700287896,117.13976252901864 c-28.100132666263693,56.61755188902568 -53.29335505670701,104.44962158837495 -57.169235424467516,107.37811565160042 c-3.875880367760509,2.9284940632254663 -16.472491562982164,29.28494063225466 -29.06910275820382,58.56988126450932 c-12.596611195221655,29.28494063225466 -27.131162574323568,58.56988126450932 -32.94498312596433,64.42686939096025 c-5.813820551640764,6.833152814192754 -18.41043174686242,32.213434695480125 -28.100132666263693,56.61755188902568 c-9.689700919401274,24.40411719354555 -20.348371930742676,44.90357563612381 -25.19322239044331,44.90357563612381 c-3.875880367760509,0 -17.44146165492229,23.42795250580373 -29.06910275820382,51.73672845031657 c-11.627641103281528,27.332611256771017 -25.19322239044331,52.71289313805839 -29.06910275820382,55.641387201283855 c-2.906910275820382,2.9284940632254663 -16.472491562982164,25.380281881287374 -29.06910275820382,51.73672845031657 c-12.596611195221655,25.380281881287374 -28.100132666263693,45.87974032386563 -34.88292330984458,45.87974032386563 c-5.813820551640764,0 -25.19322239044331,-20.499458442578263 -40.69674386148535,-46.85590501160746 z" id="svg_2" fill="#ffffff" fill-opacity="1" stroke="#000000" stroke-opacity="1" stroke-width="50"/>
</g></g></svg>