<svg xmlns="http://www.w3.org/2000/svg" width="346.667" height="346.667" preserveAspectRatio="xMidYMid meet" version="1.0" viewBox="0 0 260 260"><metadata>Created by potrace 1.11, written by Peter Selinger 2001-2013</metadata><g fill="#000" stroke="none"><path d="M1262 2587 c-7 -8 -9 -17 -5 -20 3 -4 2 -7 -4 -7 -10 0 -19 -19 -21 -44 0 -5 -4 -12 -9 -15 -5 -3 -24 -37 -43 -76 -19 -38 -39 -73 -43 -76 -5 -3 -8 -8 -8 -10 2 -15 -13 -49 -22 -49 -6 0 -7 -3 -4 -6 4 -4 -2 -19 -11 -33 -10 -14 -26 -45 -37 -68 -10 -24 -22 -43 -27 -43 -4 0 -7 -4 -6 -8 4 -10 -44 -105 -57 -114 -5 -4 -6 -8 -2 -8 5 0 -1 -13 -13 -30 -12 -16 -18 -30 -15 -30 3 0 -3 -13 -14 -29 -11 -15 -18 -31 -14 -35 4 -3 -3 -17 -15 -29 -12 -13 -19 -27 -15 -31 4 -4 3 -10 -2 -14 -14 -10 -70 -124 -68 -139 0 -7 -6 -13 -15 -13 -8 0 -12 -3 -9 -7 4 -3 2 -12 -4 -20 -6 -7 -9 -13 -6 -13 3 0 -10 -26 -29 -57 -19 -31 -34 -61 -34 -65 0 -5 -11 -26 -24 -47 -14 -21 -22 -42 -19 -45 4 -3 1 -6 -5 -6 -7 0 -12 -9 -12 -20 0 -11 -5 -20 -11 -20 -5 0 -7 -4 -4 -10 3 -5 2 -10 -3 -10 -9 0 -25 -37 -23 -52 1 -5 -3 -8 -8 -8 -8 0 -24 -37 -22 -52 1 -5 -4 -8 -9 -8 -6 0 -10 -7 -10 -15 0 -8 -4 -15 -10 -15 -5 0 -9 -3 -8 -8 0 -4 -1 -14 -4 -22 -4 -8 -9 -24 -14 -35 -4 -11 -6 -23 -6 -27 1 -5 -3 -8 -8 -8 -6 0 -10 -7 -10 -15 0 -8 -4 -15 -10 -15 -5 0 -10 -3 -9 -7 2 -16 -14 -53 -22 -53 -5 0 -9 -3 -8 -8 2 -14 -13 -52 -21 -52 -4 0 -11 -12 -14 -26 -4 -14 -18 -44 -33 -66 -14 -23 -28 -58 -30 -79 -5 -35 -4 -38 18 -37 13 1 32 8 42 17 10 8 27 16 38 18 11 2 30 9 42 15 12 7 26 11 31 10 4 -2 13 1 20 6 17 14 80 29 148 36 20 2 41 7 47 10 16 10 378 8 398 -2 10 -5 31 -7 48 -6 16 2 35 -2 42 -8 8 -6 16 -8 19 -5 3 3 25 0 49 -8 24 -7 46 -10 49 -8 3 3 13 2 23 -3 10 -4 25 -9 33 -10 8 -1 35 -7 60 -14 25 -6 53 -12 63 -13 9 -1 17 -5 17 -9 0 -4 8 -8 18 -8 10 0 22 -3 26 -7 3 -4 15 -8 25 -10 10 -1 31 -8 47 -14 16 -7 31 -13 34 -14 86 -29 123 -51 150 -89 17 -22 30 -46 30 -53 0 -7 4 -13 8 -13 7 0 20 -21 40 -64 3 -5 -1 -5 -8 -1 -15 9 -84 25 -117 28 -13 0 -23 4 -23 7 0 4 -16 7 -35 8 -19 1 -44 6 -55 12 -10 6 -23 10 -27 9 -4 -1 -11 0 -15 1 -9 3 -10 3 -63 15 -22 4 -46 7 -52 6 -7 -1 -13 3 -13 9 0 6 -8 10 -17 9 -10 -2 -34 1 -53 6 -19 5 -39 8 -44 7 -4 -2 -13 2 -20 7 -6 5 -25 9 -41 9 -17 -1 -41 3 -55 7 -14 5 -35 8 -47 6 -13 -1 -28 1 -35 6 -7 4 -31 8 -53 8 -22 1 -46 5 -54 9 -17 11 -441 11 -472 0 -13 -4 -31 -9 -39 -9 -8 -1 -22 -4 -30 -8 -8 -3 -28 -9 -45 -13 -34 -8 -42 -10 -52 -14 -5 -1 -12 -2 -16 -1 -4 1 -10 -5 -13 -13 -3 -8 -12 -12 -20 -9 -8 3 -14 0 -14 -6 0 -6 -7 -11 -15 -11 -8 0 -15 -5 -15 -11 0 -5 -4 -8 -9 -4 -5 3 -15 -1 -23 -8 -7 -8 -18 -16 -25 -18 -40 -15 -167 -160 -198 -226 -11 -24 -24 -43 -28 -43 -5 0 -5 -4 -2 -10 3 -5 1 -10 -5 -10 -6 0 -10 -6 -8 -13 1 -6 -5 -28 -14 -47 -30 -67 -40 -99 -33 -109 3 -6 1 -11 -4 -11 -6 0 -11 -13 -11 -30 0 -40 32 -40 70 0 15 17 32 30 37 30 5 0 20 11 33 25 12 13 26 22 30 20 4 -3 15 4 25 15 10 11 24 20 32 20 8 0 23 9 35 20 12 10 25 17 30 14 4 -3 8 -1 8 4 0 9 37 25 53 23 4 -1 7 3 7 8 0 8 35 22 44 18 1 -1 9 3 17 9 17 13 69 28 88 25 7 -1 10 2 6 8 -4 7 4 11 19 11 14 0 27 4 31 9 3 5 17 8 30 5 14 -2 25 0 25 5 0 11 56 20 130 22 30 1 60 5 65 9 12 9 156 10 170 1 6 -3 35 -7 65 -9 98 -5 160 -14 160 -23 0 -5 12 -7 26 -5 15 3 35 1 44 -4 10 -5 32 -11 50 -12 17 -1 34 -6 36 -10 2 -4 13 -5 24 -3 11 2 22 0 25 -6 4 -5 19 -9 35 -9 16 0 31 -4 34 -9 4 -5 17 -8 31 -6 14 1 25 -2 25 -6 0 -5 13 -9 29 -9 17 0 32 -4 35 -9 3 -4 17 -7 31 -6 14 2 25 -1 25 -7 0 -6 7 -8 15 -4 8 3 20 0 27 -7 7 -7 24 -13 38 -14 43 -3 85 -14 88 -23 2 -4 16 -6 33 -3 17 2 29 0 29 -6 0 -6 18 -11 40 -11 22 0 40 -4 40 -9 0 -5 9 -7 20 -4 11 3 26 0 34 -6 7 -6 24 -11 37 -11 28 1 87 -9 109 -17 8 -3 33 -7 54 -8 22 -1 41 -6 43 -11 2 -5 30 -8 63 -7 33 2 60 -1 60 -5 0 -4 47 -8 105 -8 102 1 105 1 105 23 0 13 -5 23 -12 23 -6 0 -9 3 -5 6 3 4 -4 21 -17 38 -22 28 -44 81 -35 81 2 0 -6 14 -18 31 -12 17 -20 34 -16 38 3 3 2 6 -4 6 -9 0 -21 27 -21 47 0 3 -4 9 -9 12 -4 3 -17 24 -28 46 -11 22 -24 43 -28 46 -5 3 -8 9 -8 13 1 6 -21 52 -136 275 -53 106 -108 181 -130 181 -5 0 -20 11 -33 25 -13 14 -26 23 -28 20 -3 -2 -17 4 -32 15 -15 11 -29 17 -32 14 -3 -2 -11 2 -18 11 -7 8 -19 15 -26 15 -8 0 -14 4 -14 9 0 7 -29 19 -60 25 -3 1 -11 5 -17 9 -7 5 -13 5 -13 0 0 -4 -5 0 -11 10 -6 9 -14 15 -20 12 -5 -4 -16 1 -25 9 -8 9 -26 16 -39 16 -13 0 -27 5 -30 11 -4 6 -13 8 -21 5 -7 -3 -17 0 -21 7 -5 7 -17 13 -28 14 -40 4 -71 11 -100 23 -32 13 -46 16 -137 26 -32 4 -58 9 -58 13 0 4 -45 6 -99 6 -88 -1 -100 1 -104 17 -3 10 -1 21 5 24 5 3 7 12 4 19 -2 7 1 18 7 24 7 7 12 15 13 19 0 4 6 21 13 37 7 17 14 35 15 40 1 6 4 15 8 20 3 6 9 25 13 43 3 17 11 32 16 32 5 0 9 11 9 25 0 14 4 25 9 25 6 0 8 9 6 21 -2 11 1 19 7 17 14 -5 58 -84 51 -92 -4 -3 -2 -6 3 -6 5 0 18 -20 29 -45 11 -25 23 -45 28 -45 4 0 7 -7 7 -15 0 -8 9 -15 20 -15 11 0 20 3 20 8 0 4 14 8 30 8 17 1 30 -2 30 -6 0 -5 28 -10 63 -13 67 -5 85 -8 105 -20 6 -5 12 -6 12 -3 0 3 16 -2 35 -10 19 -8 35 -11 35 -7 0 5 4 3 8 -2 4 -6 32 -21 62 -35 30 -14 58 -29 62 -35 4 -5 8 -6 8 -1 0 5 8 1 19 -8 22 -20 70 -31 72 -16 1 5 2 16 3 23 1 6 -5 26 -13 42 -8 17 -14 33 -13 38 1 4 -2 7 -7 7 -8 0 -24 37 -22 53 1 4 -4 7 -9 7 -6 0 -10 7 -10 15 0 8 -4 15 -10 15 -5 0 -10 3 -9 8 2 14 -13 52 -22 52 -4 0 -11 16 -15 35 -3 19 -12 39 -20 46 -8 6 -14 18 -14 25 0 8 -4 14 -10 14 -5 0 -9 3 -8 8 3 15 -15 62 -24 62 -6 0 -8 6 -5 13 3 7 -4 19 -15 26 -11 7 -17 15 -14 18 6 6 -94 206 -106 211 -4 2 -4 10 -1 19 4 11 2 14 -5 9 -7 -4 -12 -2 -12 5 0 14 -42 101 -52 109 -3 3 -10 18 -13 33 -4 15 -11 27 -15 27 -5 0 -11 14 -15 30 -4 17 -10 30 -15 30 -5 0 -11 14 -15 30 -4 17 -10 30 -15 30 -7 0 -27 44 -28 64 0 5 -6 12 -14 17 -7 5 -13 12 -14 16 -1 10 -27 66 -34 73 -3 3 -16 30 -30 60 -14 30 -28 57 -32 58 -5 2 -8 10 -8 18 0 8 -4 14 -10 14 -5 0 -9 6 -7 12 3 18 -38 22 -51 5z" transform="translate(0.000000,260.000000) scale(0.100000,-0.100000)"/></g></svg>